# xmcd
#
# Track frame offsets: 
#        183
#        17855
#        31975
#        48223
#        64513
#        77653
#        89808
#        104015
#        117210
#        129865
#        146780
#        162648
#
# Disc length: 2384 seconds
#
# Revision: 0
# Processed by: cddbd v1.5.1PL0 Copyright (c) Steve Scherf et al.
# Submitted via: ExactAudioCopy v0.95a5
#
DISCID=a3094e0c
DTITLE=Rolf Raggenbass - Deep In The Heart Of Country
DYEAR=1993
DGENRE=
TTITLE0=Do You Remember
TTITLE1=Deep In The Heart Of Love
TTITLE2=Over My Head
TTITLE3=Ich Möcht Gern Wüsse
TTITLE4=What'a'ya Got To Lose
TTITLE5=I'givng Back My Borowed Angel
TTITLE6=Everlasting Love
TTITLE7=Don't Leave Home Without Her
TTITLE8=He's Still Rockin'
TTITLE9=Lah Mi Gah
TTITLE10=Get Back Some Memories
TTITLE11=I Get The Message
EXTD=
EXTT0=
EXTT1=
EXTT2=
EXTT3=
EXTT4=
EXTT5=
EXTT6=
EXTT7=
EXTT8=
EXTT9=
EXTT10=
EXTT11=
PLAYORDER=
